<svg xmlns="http://www.w3.org/2000/svg" xmlns:xlink="http://www.w3.org/1999/xlink" width="1920" zoomAndPan="magnify" viewBox="0 0 1440 809.999993" height="1080" preserveAspectRatio="xMidYMid meet" version="1.0"><defs><g/><clipPath id="5b1b0d6a81"><path d="M 1219.746094 662.679688 L 1359.246094 662.679688 L 1359.246094 715 L 1219.746094 715 Z M 1219.746094 662.679688 " clip-rule="nonzero"/></clipPath><clipPath id="62d62e00a7"><path d="M 1223 680 L 1356 680 L 1356 728.679688 L 1223 728.679688 Z M 1223 680 " clip-rule="nonzero"/></clipPath><clipPath id="14134432bf"><path d="M 1219.746094 671 L 1359.246094 671 L 1359.246094 723 L 1219.746094 723 Z M 1219.746094 671 " clip-rule="nonzero"/></clipPath></defs><rect x="-144" width="1728" fill="#ffffff" y="-80.999999" height="971.999992" fill-opacity="1"/><rect x="-144" width="1728" fill="#000000" y="-80.999999" height="971.999992" fill-opacity="1"/><g clip-path="url(#5b1b0d6a81)"><path fill="#ff3300" d="M 1225.542969 662.910156 L 1353.464844 662.910156 C 1356.679688 662.910156 1359.269531 665.480469 1359.269531 668.675781 L 1359.269531 708.664062 C 1359.269531 711.859375 1356.683594 714.433594 1353.464844 714.433594 L 1225.542969 714.433594 C 1222.328125 714.433594 1219.738281 711.859375 1219.738281 708.664062 L 1219.738281 668.675781 C 1219.738281 665.480469 1222.328125 662.910156 1225.542969 662.910156 Z M 1225.542969 662.910156 " fill-opacity="1" fill-rule="nonzero"/></g><g clip-path="url(#62d62e00a7)"><path fill="#dadada" d="M 1229.34375 680.003906 L 1349.664062 680.003906 C 1352.691406 680.003906 1355.125 682.421875 1355.125 685.425781 L 1355.125 723.039062 C 1355.125 726.042969 1352.691406 728.464844 1349.664062 728.464844 L 1229.34375 728.464844 C 1226.320312 728.464844 1223.886719 726.042969 1223.886719 723.039062 L 1223.886719 685.425781 C 1223.886719 682.421875 1226.320312 680.003906 1229.34375 680.003906 Z M 1229.34375 680.003906 " fill-opacity="1" fill-rule="nonzero"/></g><g clip-path="url(#14134432bf)"><path fill="#ffffff" d="M 1225.542969 671.382812 L 1353.464844 671.382812 C 1356.679688 671.382812 1359.269531 673.957031 1359.269531 677.148438 L 1359.269531 717.140625 C 1359.269531 720.335938 1356.683594 722.90625 1353.464844 722.90625 L 1225.542969 722.90625 C 1222.328125 722.90625 1219.738281 720.335938 1219.738281 717.140625 L 1219.738281 677.148438 C 1219.738281 673.953125 1222.328125 671.382812 1225.542969 671.382812 Z M 1225.542969 671.382812 " fill-opacity="1" fill-rule="nonzero"/></g><path fill="#ff3300" d="M 1265.429688 697.027344 C 1265.433594 697.570312 1265.40625 698.109375 1265.351562 698.644531 C 1265.296875 699.183594 1265.21875 699.714844 1265.113281 700.246094 C 1265.007812 700.773438 1264.875 701.296875 1264.71875 701.8125 C 1264.558594 702.332031 1264.375 702.835938 1264.167969 703.335938 C 1263.960938 703.835938 1263.726562 704.324219 1263.472656 704.800781 C 1263.214844 705.273438 1262.9375 705.738281 1262.632812 706.1875 C 1262.332031 706.636719 1262.011719 707.070312 1261.664062 707.484375 C 1261.320312 707.902344 1260.957031 708.304688 1260.570312 708.683594 C 1260.1875 709.066406 1259.785156 709.429688 1259.363281 709.769531 C 1258.945312 710.113281 1258.507812 710.433594 1258.054688 710.734375 C 1257.605469 711.035156 1257.140625 711.3125 1256.660156 711.566406 C 1256.179688 711.820312 1255.691406 712.050781 1255.1875 712.257812 C 1254.683594 712.464844 1254.175781 712.648438 1253.65625 712.804688 C 1253.136719 712.960938 1252.609375 713.089844 1252.074219 713.195312 C 1251.542969 713.300781 1251.003906 713.382812 1250.464844 713.433594 C 1249.925781 713.488281 1249.382812 713.511719 1248.839844 713.511719 C 1248.292969 713.511719 1247.753906 713.488281 1247.210938 713.433594 C 1246.671875 713.382812 1246.132812 713.300781 1245.601562 713.195312 C 1245.070312 713.089844 1244.542969 712.960938 1244.023438 712.804688 C 1243.503906 712.648438 1242.992188 712.464844 1242.488281 712.257812 C 1241.984375 712.050781 1241.496094 711.820312 1241.015625 711.566406 C 1240.539062 711.3125 1240.070312 711.035156 1239.621094 710.734375 C 1239.167969 710.433594 1238.734375 710.113281 1238.3125 709.769531 C 1237.894531 709.429688 1237.492188 709.066406 1237.105469 708.683594 C 1236.722656 708.304688 1236.355469 707.902344 1236.011719 707.484375 C 1235.667969 707.070312 1235.34375 706.636719 1235.042969 706.1875 C 1234.742188 705.738281 1234.460938 705.273438 1234.207031 704.800781 C 1233.949219 704.324219 1233.714844 703.835938 1233.507812 703.335938 C 1233.300781 702.835938 1233.117188 702.332031 1232.960938 701.8125 C 1232.800781 701.296875 1232.671875 700.773438 1232.5625 700.242188 C 1232.457031 699.714844 1232.378906 699.179688 1232.324219 698.644531 C 1232.273438 698.105469 1232.246094 697.570312 1232.246094 697.027344 C 1232.246094 696.488281 1232.273438 695.949219 1232.324219 695.414062 C 1232.378906 694.875 1232.457031 694.34375 1232.566406 693.8125 C 1232.671875 693.285156 1232.804688 692.761719 1232.960938 692.242188 C 1233.121094 691.726562 1233.300781 691.21875 1233.507812 690.71875 C 1233.71875 690.222656 1233.949219 689.734375 1234.207031 689.257812 C 1234.460938 688.78125 1234.738281 688.320312 1235.042969 687.871094 C 1235.34375 687.421875 1235.667969 686.988281 1236.011719 686.570312 C 1236.355469 686.152344 1236.722656 685.753906 1237.105469 685.371094 C 1237.492188 684.992188 1237.894531 684.628906 1238.3125 684.285156 C 1238.734375 683.945312 1239.167969 683.621094 1239.621094 683.320312 C 1240.070312 683.023438 1240.539062 682.746094 1241.015625 682.492188 C 1241.496094 682.238281 1241.984375 682.007812 1242.488281 681.800781 C 1242.992188 681.59375 1243.5 681.410156 1244.019531 681.253906 C 1244.542969 681.097656 1245.066406 680.964844 1245.601562 680.859375 C 1246.132812 680.753906 1246.671875 680.675781 1247.210938 680.625 C 1247.753906 680.570312 1248.292969 680.542969 1248.839844 680.542969 C 1249.382812 680.542969 1249.925781 680.570312 1250.464844 680.625 C 1251.003906 680.675781 1251.542969 680.757812 1252.074219 680.859375 C 1252.609375 680.964844 1253.132812 681.097656 1253.65625 681.253906 C 1254.175781 681.410156 1254.683594 681.59375 1255.1875 681.800781 C 1255.691406 682.003906 1256.179688 682.234375 1256.660156 682.492188 C 1257.140625 682.746094 1257.605469 683.023438 1258.054688 683.320312 C 1258.507812 683.621094 1258.945312 683.945312 1259.363281 684.285156 C 1259.785156 684.628906 1260.1875 684.992188 1260.570312 685.371094 C 1260.957031 685.753906 1261.320312 686.152344 1261.664062 686.570312 C 1262.007812 686.988281 1262.332031 687.421875 1262.632812 687.871094 C 1262.9375 688.320312 1263.214844 688.78125 1263.472656 689.257812 C 1263.726562 689.734375 1263.960938 690.222656 1264.167969 690.71875 C 1264.375 691.21875 1264.558594 691.726562 1264.714844 692.242188 C 1264.875 692.761719 1265.007812 693.28125 1265.113281 693.8125 C 1265.21875 694.34375 1265.296875 694.875 1265.351562 695.414062 C 1265.40625 695.949219 1265.433594 696.488281 1265.429688 697.027344 Z M 1265.429688 697.027344 " fill-opacity="1" fill-rule="nonzero"/><path fill="#ffffff" d="M 1255.078125 691.363281 C 1254.523438 690.8125 1253.628906 690.8125 1253.078125 691.363281 L 1248.878906 695.535156 L 1244.679688 691.363281 C 1244.125 690.8125 1243.234375 690.8125 1242.679688 691.363281 C 1242.125 691.914062 1242.125 692.800781 1242.679688 693.351562 L 1246.878906 697.519531 L 1242.679688 701.695312 C 1242.125 702.246094 1242.125 703.128906 1242.679688 703.679688 C 1243.230469 704.230469 1244.125 704.230469 1244.679688 703.679688 L 1248.878906 699.507812 L 1253.078125 703.679688 C 1253.632812 704.230469 1254.523438 704.230469 1255.078125 703.679688 C 1255.632812 703.128906 1255.632812 702.242188 1255.078125 701.695312 L 1250.878906 697.519531 L 1255.078125 693.351562 C 1255.628906 692.796875 1255.628906 691.914062 1255.078125 691.363281 Z M 1255.078125 691.363281 " fill-opacity="1" fill-rule="nonzero"/><path fill="#000000" d="M 1321.015625 689.386719 C 1319.644531 689.386719 1318.386719 689.703125 1317.238281 690.335938 C 1316.089844 690.96875 1315.175781 691.855469 1314.496094 692.996094 C 1313.832031 694.125 1313.5 695.40625 1313.5 696.835938 C 1313.5 698.265625 1313.832031 699.550781 1314.496094 700.695312 C 1315.175781 701.820312 1316.089844 702.707031 1317.238281 703.355469 C 1318.386719 703.988281 1319.644531 704.304688 1321.015625 704.304688 C 1322.386719 704.304688 1323.648438 703.988281 1324.796875 703.355469 C 1325.945312 702.707031 1326.851562 701.820312 1327.515625 700.695312 C 1328.183594 699.550781 1328.515625 698.265625 1328.515625 696.835938 C 1328.515625 695.40625 1328.183594 694.125 1327.515625 692.996094 C 1326.851562 691.855469 1325.945312 690.96875 1324.796875 690.335938 C 1323.660156 689.703125 1322.402344 689.386719 1321.015625 689.386719 Z M 1275.160156 689.613281 L 1275.160156 704.160156 L 1284.527344 704.160156 L 1284.527344 700.917969 L 1279.234375 700.917969 L 1279.234375 698.300781 L 1283.90625 698.300781 L 1283.90625 695.222656 L 1279.234375 695.222656 L 1279.234375 692.851562 L 1284.527344 692.851562 L 1284.527344 689.613281 Z M 1286.542969 689.613281 L 1286.542969 704.160156 L 1290.613281 704.160156 L 1290.613281 698.792969 L 1291.050781 698.792969 L 1293.957031 704.160156 L 1298.503906 704.160156 L 1295.203125 698.484375 C 1296.253906 698.167969 1297.050781 697.636719 1297.589844 696.894531 C 1298.144531 696.140625 1298.421875 695.265625 1298.421875 694.277344 C 1298.421875 693.394531 1298.214844 692.605469 1297.800781 691.902344 C 1297.382812 691.1875 1296.769531 690.628906 1295.953125 690.230469 C 1295.132812 689.820312 1294.136719 689.613281 1292.960938 689.613281 Z M 1300.269531 689.613281 L 1300.269531 704.160156 L 1304.339844 704.160156 L 1304.339844 698.792969 L 1304.777344 698.792969 L 1307.683594 704.160156 L 1312.230469 704.160156 L 1308.929688 698.484375 C 1309.980469 698.167969 1310.78125 697.636719 1311.320312 696.894531 C 1311.871094 696.140625 1312.148438 695.265625 1312.148438 694.277344 C 1312.148438 693.394531 1311.941406 692.605469 1311.527344 691.902344 C 1311.113281 691.1875 1310.496094 690.628906 1309.679688 690.230469 C 1308.863281 689.820312 1307.863281 689.613281 1306.6875 689.613281 Z M 1330.339844 689.613281 L 1330.339844 704.160156 L 1334.410156 704.160156 L 1334.410156 698.792969 L 1334.847656 698.792969 L 1337.753906 704.160156 L 1342.304688 704.160156 L 1339 698.484375 C 1340.054688 698.167969 1340.847656 697.636719 1341.390625 696.894531 C 1341.941406 696.140625 1342.222656 695.265625 1342.222656 694.277344 C 1342.222656 693.394531 1342.011719 692.605469 1341.597656 691.902344 C 1341.183594 691.1875 1340.566406 690.628906 1339.75 690.230469 C 1338.933594 689.820312 1337.9375 689.613281 1336.757812 689.613281 Z M 1290.613281 692.996094 L 1292.628906 692.996094 C 1293.167969 692.996094 1293.574219 693.132812 1293.851562 693.410156 C 1294.144531 693.671875 1294.289062 694.035156 1294.289062 694.5 C 1294.289062 694.996094 1294.148438 695.375 1293.871094 695.636719 C 1293.597656 695.898438 1293.179688 696.027344 1292.628906 696.027344 L 1290.613281 696.027344 Z M 1304.339844 692.996094 L 1306.355469 692.996094 C 1306.894531 692.996094 1307.304688 693.132812 1307.582031 693.410156 C 1307.871094 693.671875 1308.015625 694.035156 1308.015625 694.5 C 1308.015625 694.996094 1307.878906 695.375 1307.601562 695.636719 C 1307.324219 695.898438 1306.90625 696.027344 1306.355469 696.027344 L 1304.339844 696.027344 Z M 1334.410156 692.996094 L 1336.425781 692.996094 C 1336.964844 692.996094 1337.375 693.132812 1337.652344 693.410156 C 1337.941406 693.671875 1338.085938 694.035156 1338.085938 694.5 C 1338.085938 694.996094 1337.949219 695.375 1337.671875 695.636719 C 1337.394531 695.898438 1336.980469 696.027344 1336.425781 696.027344 L 1334.410156 696.027344 Z M 1321.015625 693.097656 C 1322.054688 693.097656 1322.871094 693.4375 1323.46875 694.109375 C 1324.078125 694.769531 1324.382812 695.679688 1324.382812 696.832031 C 1324.382812 697.960938 1324.078125 698.863281 1323.46875 699.535156 C 1322.871094 700.210938 1322.054688 700.546875 1321.015625 700.546875 C 1319.964844 700.546875 1319.140625 700.214844 1318.546875 699.554688 C 1317.949219 698.882812 1317.652344 697.976562 1317.652344 696.832031 C 1317.652344 695.679688 1317.949219 694.769531 1318.546875 694.109375 C 1319.140625 693.4375 1319.964844 693.097656 1321.015625 693.097656 Z M 1321.015625 693.097656 " fill-opacity="1" fill-rule="nonzero"/><g fill="#000000" fill-opacity="1"><g transform="translate(752.322976, 714.964784)"><g><path d="M 33.421875 0 L 28.75 0 L 25.3125 -10.1875 L 9.5 -10.1875 L 6.046875 0 L 1.46875 0 L 14.421875 -37.125 L 20.46875 -37.125 Z M 17.09375 -32.625 L 10.71875 -13.84375 L 24.078125 -13.84375 L 17.71875 -32.625 Z M 17.09375 -32.625 "/></g></g></g><g fill="#000000" fill-opacity="1"><g transform="translate(787.207073, 714.964784)"><g><path d="M 14.53125 0.53125 C 12.269531 0.53125 10.28125 -0.00390625 8.5625 -1.078125 C 6.851562 -2.148438 5.507812 -3.769531 4.53125 -5.9375 C 3.5625 -8.101562 3.078125 -10.785156 3.078125 -13.984375 C 3.078125 -17.191406 3.582031 -19.878906 4.59375 -22.046875 C 5.613281 -24.222656 7.015625 -25.847656 8.796875 -26.921875 C 10.585938 -28.003906 12.65625 -28.546875 15 -28.546875 C 16.863281 -28.546875 18.539062 -28.191406 20.03125 -27.484375 C 21.519531 -26.785156 22.800781 -25.628906 23.875 -24.015625 L 24.40625 -24.125 L 24.40625 -39.25 L 28.546875 -39.25 L 28.546875 0 L 24.40625 0 L 24.40625 -4.09375 L 23.875 -4.1875 C 22.957031 -2.800781 21.710938 -1.664062 20.140625 -0.78125 C 18.578125 0.09375 16.707031 0.53125 14.53125 0.53125 Z M 15.8125 -3.171875 C 18.425781 -3.171875 20.507812 -4.0625 22.0625 -5.84375 C 23.625 -7.632812 24.40625 -10.347656 24.40625 -13.984375 C 24.40625 -17.640625 23.625 -20.359375 22.0625 -22.140625 C 20.507812 -23.929688 18.425781 -24.828125 15.8125 -24.828125 C 13.125 -24.828125 11.050781 -23.957031 9.59375 -22.21875 C 8.144531 -20.476562 7.421875 -17.734375 7.421875 -13.984375 C 7.421875 -6.773438 10.21875 -3.171875 15.8125 -3.171875 Z M 15.8125 -3.171875 "/></g></g></g><g fill="#000000" fill-opacity="1"><g transform="translate(820.644018, 714.964784)"><g><path d="M 14.53125 0.53125 C 12.269531 0.53125 10.28125 -0.00390625 8.5625 -1.078125 C 6.851562 -2.148438 5.507812 -3.769531 4.53125 -5.9375 C 3.5625 -8.101562 3.078125 -10.785156 3.078125 -13.984375 C 3.078125 -17.191406 3.582031 -19.878906 4.59375 -22.046875 C 5.613281 -24.222656 7.015625 -25.847656 8.796875 -26.921875 C 10.585938 -28.003906 12.65625 -28.546875 15 -28.546875 C 16.863281 -28.546875 18.539062 -28.191406 20.03125 -27.484375 C 21.519531 -26.785156 22.800781 -25.628906 23.875 -24.015625 L 24.40625 -24.125 L 24.40625 -39.25 L 28.546875 -39.25 L 28.546875 0 L 24.40625 0 L 24.40625 -4.09375 L 23.875 -4.1875 C 22.957031 -2.800781 21.710938 -1.664062 20.140625 -0.78125 C 18.578125 0.09375 16.707031 0.53125 14.53125 0.53125 Z M 15.8125 -3.171875 C 18.425781 -3.171875 20.507812 -4.0625 22.0625 -5.84375 C 23.625 -7.632812 24.40625 -10.347656 24.40625 -13.984375 C 24.40625 -17.640625 23.625 -20.359375 22.0625 -22.140625 C 20.507812 -23.929688 18.425781 -24.828125 15.8125 -24.828125 C 13.125 -24.828125 11.050781 -23.957031 9.59375 -22.21875 C 8.144531 -20.476562 7.421875 -17.734375 7.421875 -13.984375 C 7.421875 -6.773438 10.21875 -3.171875 15.8125 -3.171875 Z M 15.8125 -3.171875 "/></g></g></g><g fill="#000000" fill-opacity="1"><g transform="translate(854.080964, 714.964784)"><g/></g></g><g fill="#000000" fill-opacity="1"><g transform="translate(866.826099, 714.964784)"><g><path d="M 11.546875 0.53125 C 8.796875 0.53125 6.644531 -0.1875 5.09375 -1.625 C 3.539062 -3.0625 2.765625 -5.117188 2.765625 -7.796875 C 2.765625 -9.453125 3.109375 -10.851562 3.796875 -12 C 4.484375 -13.144531 5.546875 -14.078125 6.984375 -14.796875 C 8.421875 -15.515625 10.300781 -16.066406 12.625 -16.453125 C 14.65625 -16.796875 16.195312 -17.175781 17.25 -17.59375 C 18.3125 -18.019531 19.023438 -18.492188 19.390625 -19.015625 C 19.753906 -19.546875 19.9375 -20.207031 19.9375 -21 C 19.9375 -22.269531 19.5 -23.242188 18.625 -23.921875 C 17.75 -24.597656 16.347656 -24.9375 14.421875 -24.9375 C 12.609375 -24.9375 11.054688 -24.582031 9.765625 -23.875 C 8.472656 -23.175781 7.285156 -22.132812 6.203125 -20.75 L 5.6875 -20.75 L 3.65625 -23.609375 C 4.84375 -25.117188 6.347656 -26.316406 8.171875 -27.203125 C 10.003906 -28.097656 12.085938 -28.546875 14.421875 -28.546875 C 17.722656 -28.546875 20.15625 -27.820312 21.71875 -26.375 C 23.289062 -24.925781 24.078125 -22.921875 24.078125 -20.359375 L 24.078125 -5.515625 C 24.078125 -3.953125 24.734375 -3.171875 26.046875 -3.171875 C 26.492188 -3.171875 26.921875 -3.25 27.328125 -3.40625 L 27.671875 -3.296875 L 28.15625 -0.4375 C 27.851562 -0.226562 27.453125 -0.0703125 26.953125 0.03125 C 26.453125 0.144531 25.941406 0.203125 25.421875 0.203125 C 23.878906 0.203125 22.710938 -0.132812 21.921875 -0.8125 C 21.140625 -1.488281 20.640625 -2.488281 20.421875 -3.8125 L 19.875 -3.859375 C 19.082031 -2.390625 18.007812 -1.289062 16.65625 -0.5625 C 15.300781 0.164062 13.597656 0.53125 11.546875 0.53125 Z M 12.46875 -2.765625 C 14.019531 -2.765625 15.367188 -3.125 16.515625 -3.84375 C 17.660156 -4.5625 18.535156 -5.570312 19.140625 -6.875 C 19.753906 -8.1875 20.0625 -9.695312 20.0625 -11.40625 L 20.0625 -14.953125 L 19.578125 -15.0625 C 18.953125 -14.613281 18.191406 -14.242188 17.296875 -13.953125 C 16.398438 -13.660156 15.144531 -13.394531 13.53125 -13.15625 C 11.90625 -12.9375 10.613281 -12.597656 9.65625 -12.140625 C 8.707031 -11.679688 8.03125 -11.097656 7.625 -10.390625 C 7.21875 -9.691406 7.015625 -8.828125 7.015625 -7.796875 C 7.015625 -6.148438 7.492188 -4.898438 8.453125 -4.046875 C 9.421875 -3.191406 10.757812 -2.765625 12.46875 -2.765625 Z M 12.46875 -2.765625 "/></g></g></g><g fill="#000000" fill-opacity="1"><g transform="translate(895.79463, 714.964784)"><g/></g></g><g fill="#000000" fill-opacity="1"><g transform="translate(908.539766, 714.964784)"><g><path d="M 12.765625 0.53125 C 11.003906 0.53125 9.375 0.300781 7.875 -0.15625 C 6.382812 -0.625 5.125 -1.265625 4.09375 -2.078125 C 3.0625 -2.890625 2.332031 -3.804688 1.90625 -4.828125 L 4.34375 -7.359375 L 4.875 -7.359375 C 5.789062 -5.972656 6.890625 -4.925781 8.171875 -4.21875 C 9.460938 -3.519531 10.992188 -3.171875 12.765625 -3.171875 C 14.835938 -3.171875 16.410156 -3.570312 17.484375 -4.375 C 18.554688 -5.1875 19.09375 -6.3125 19.09375 -7.75 C 19.09375 -8.84375 18.765625 -9.75 18.109375 -10.46875 C 17.460938 -11.1875 16.410156 -11.726562 14.953125 -12.09375 L 10.234375 -13.25 C 7.710938 -13.863281 5.867188 -14.828125 4.703125 -16.140625 C 3.546875 -17.460938 2.96875 -19.097656 2.96875 -21.046875 C 2.96875 -22.566406 3.359375 -23.890625 4.140625 -25.015625 C 4.921875 -26.148438 6.039062 -27.019531 7.5 -27.625 C 8.96875 -28.238281 10.707031 -28.546875 12.71875 -28.546875 C 15.289062 -28.546875 17.316406 -28.179688 18.796875 -27.453125 C 20.285156 -26.734375 21.441406 -25.734375 22.265625 -24.453125 L 19.9375 -22.171875 L 19.421875 -22.171875 C 18.523438 -23.203125 17.546875 -23.945312 16.484375 -24.40625 C 15.429688 -24.863281 14.175781 -25.09375 12.71875 -25.09375 C 10.875 -25.09375 9.460938 -24.757812 8.484375 -24.09375 C 7.503906 -23.4375 7.015625 -22.484375 7.015625 -21.234375 C 7.015625 -20.097656 7.359375 -19.179688 8.046875 -18.484375 C 8.742188 -17.785156 9.957031 -17.226562 11.6875 -16.8125 L 16.328125 -15.6875 C 18.765625 -15.113281 20.523438 -14.15625 21.609375 -12.8125 C 22.691406 -11.476562 23.234375 -9.804688 23.234375 -7.796875 C 23.234375 -6.148438 22.84375 -4.703125 22.0625 -3.453125 C 21.28125 -2.203125 20.101562 -1.222656 18.53125 -0.515625 C 16.957031 0.179688 15.035156 0.53125 12.765625 0.53125 Z M 12.765625 0.53125 "/></g></g></g><g fill="#000000" fill-opacity="1"><g transform="translate(934.436256, 714.964784)"><g><path d="M 13.84375 0.53125 C 10.675781 0.53125 8.316406 -0.304688 6.765625 -1.984375 C 5.210938 -3.660156 4.4375 -6.113281 4.4375 -9.34375 L 4.4375 -28 L 8.578125 -28 L 8.578125 -9.453125 C 8.578125 -5.203125 10.578125 -3.078125 14.578125 -3.078125 C 17.117188 -3.078125 19.125 -3.90625 20.59375 -5.5625 C 22.0625 -7.21875 22.796875 -9.910156 22.796875 -13.640625 L 22.796875 -28 L 26.9375 -28 L 26.9375 0 L 23.03125 0 L 23.03125 -4.390625 L 22.5 -4.515625 C 21.53125 -2.804688 20.375 -1.535156 19.03125 -0.703125 C 17.6875 0.117188 15.957031 0.53125 13.84375 0.53125 Z M 13.84375 0.53125 "/></g></g></g><g fill="#000000" fill-opacity="1"><g transform="translate(966.248335, 714.964784)"><g><path d="M 18.609375 0.53125 C 16.523438 0.53125 14.71875 0.128906 13.1875 -0.671875 C 11.65625 -1.472656 10.441406 -2.535156 9.546875 -3.859375 L 9.015625 -3.765625 L 9.015625 0 L 4.875 0 L 4.875 -39.25 L 9.015625 -39.25 L 9.015625 -23.8125 L 9.546875 -23.71875 C 11.679688 -26.9375 14.78125 -28.546875 18.84375 -28.546875 C 21.144531 -28.546875 23.15625 -28.007812 24.875 -26.9375 C 26.601562 -25.875 27.945312 -24.253906 28.90625 -22.078125 C 29.863281 -19.898438 30.34375 -17.203125 30.34375 -13.984375 C 30.34375 -10.804688 29.835938 -8.128906 28.828125 -5.953125 C 27.828125 -3.773438 26.445312 -2.148438 24.6875 -1.078125 C 22.925781 -0.00390625 20.898438 0.53125 18.609375 0.53125 Z M 17.625 -3.171875 C 23.207031 -3.171875 26 -6.773438 26 -13.984375 C 26 -17.734375 25.269531 -20.476562 23.8125 -22.21875 C 22.363281 -23.957031 20.300781 -24.828125 17.625 -24.828125 C 15 -24.828125 12.90625 -23.929688 11.34375 -22.140625 C 9.789062 -20.359375 9.015625 -17.640625 9.015625 -13.984375 C 9.015625 -10.347656 9.789062 -7.632812 11.34375 -5.84375 C 12.90625 -4.0625 15 -3.171875 17.625 -3.171875 Z M 17.625 -3.171875 "/></g></g></g><g fill="#000000" fill-opacity="1"><g transform="translate(999.659886, 714.964784)"><g><path d="M 4.875 0 L 4.875 -39.25 L 9.015625 -39.25 L 9.015625 -24.015625 L 9.546875 -23.921875 C 11.546875 -27.003906 14.429688 -28.546875 18.203125 -28.546875 C 21.578125 -28.546875 24.019531 -27.6875 25.53125 -25.96875 C 27.039062 -24.25 27.796875 -21.601562 27.796875 -18.03125 L 27.796875 0 L 23.671875 0 L 23.671875 -17.921875 C 23.671875 -19.617188 23.453125 -20.976562 23.015625 -22 C 22.585938 -23.019531 21.921875 -23.765625 21.015625 -24.234375 C 20.109375 -24.703125 18.914062 -24.9375 17.4375 -24.9375 C 14.90625 -24.9375 12.867188 -24.113281 11.328125 -22.46875 C 9.785156 -20.832031 9.015625 -18.132812 9.015625 -14.375 L 9.015625 0 Z M 4.875 0 "/></g></g></g><g fill="#000000" fill-opacity="1"><g transform="translate(1031.903545, 714.964784)"><g><path d="M 26.6875 -13.046875 L 7.4375 -13.046875 C 7.5625 -9.648438 8.378906 -7.15625 9.890625 -5.5625 C 11.398438 -3.96875 13.476562 -3.171875 16.125 -3.171875 C 18.125 -3.171875 19.734375 -3.523438 20.953125 -4.234375 C 22.171875 -4.953125 23.125 -6.070312 23.8125 -7.59375 L 24.34375 -7.59375 L 27.046875 -6 C 26.234375 -3.96875 24.929688 -2.367188 23.140625 -1.203125 C 21.359375 -0.046875 19.019531 0.53125 16.125 0.53125 C 13.414062 0.53125 11.085938 0 9.140625 -1.0625 C 7.191406 -2.132812 5.691406 -3.753906 4.640625 -5.921875 C 3.597656 -8.085938 3.078125 -10.773438 3.078125 -13.984375 C 3.078125 -17.171875 3.628906 -19.851562 4.734375 -22.03125 C 5.847656 -24.21875 7.363281 -25.847656 9.28125 -26.921875 C 11.195312 -28.003906 13.394531 -28.546875 15.875 -28.546875 C 19.457031 -28.546875 22.253906 -27.53125 24.265625 -25.5 C 26.285156 -23.476562 27.304688 -20.476562 27.328125 -16.5 C 27.328125 -14.945312 27.289062 -13.898438 27.21875 -13.359375 Z M 23.234375 -16.5 C 23.160156 -19.476562 22.5 -21.644531 21.25 -23 C 20 -24.351562 18.207031 -25.03125 15.875 -25.03125 C 13.414062 -25.03125 11.488281 -24.347656 10.09375 -22.984375 C 8.695312 -21.628906 7.847656 -19.46875 7.546875 -16.5 Z M 23.234375 -16.5 "/></g></g></g><g fill="#000000" fill-opacity="1"><g transform="translate(1061.760675, 714.964784)"><g><path d="M 11.546875 0.53125 C 8.796875 0.53125 6.644531 -0.1875 5.09375 -1.625 C 3.539062 -3.0625 2.765625 -5.117188 2.765625 -7.796875 C 2.765625 -9.453125 3.109375 -10.851562 3.796875 -12 C 4.484375 -13.144531 5.546875 -14.078125 6.984375 -14.796875 C 8.421875 -15.515625 10.300781 -16.066406 12.625 -16.453125 C 14.65625 -16.796875 16.195312 -17.175781 17.25 -17.59375 C 18.3125 -18.019531 19.023438 -18.492188 19.390625 -19.015625 C 19.753906 -19.546875 19.9375 -20.207031 19.9375 -21 C 19.9375 -22.269531 19.5 -23.242188 18.625 -23.921875 C 17.75 -24.597656 16.347656 -24.9375 14.421875 -24.9375 C 12.609375 -24.9375 11.054688 -24.582031 9.765625 -23.875 C 8.472656 -23.175781 7.285156 -22.132812 6.203125 -20.75 L 5.6875 -20.75 L 3.65625 -23.609375 C 4.84375 -25.117188 6.347656 -26.316406 8.171875 -27.203125 C 10.003906 -28.097656 12.085938 -28.546875 14.421875 -28.546875 C 17.722656 -28.546875 20.15625 -27.820312 21.71875 -26.375 C 23.289062 -24.925781 24.078125 -22.921875 24.078125 -20.359375 L 24.078125 -5.515625 C 24.078125 -3.953125 24.734375 -3.171875 26.046875 -3.171875 C 26.492188 -3.171875 26.921875 -3.25 27.328125 -3.40625 L 27.671875 -3.296875 L 28.15625 -0.4375 C 27.851562 -0.226562 27.453125 -0.0703125 26.953125 0.03125 C 26.453125 0.144531 25.941406 0.203125 25.421875 0.203125 C 23.878906 0.203125 22.710938 -0.132812 21.921875 -0.8125 C 21.140625 -1.488281 20.640625 -2.488281 20.421875 -3.8125 L 19.875 -3.859375 C 19.082031 -2.390625 18.007812 -1.289062 16.65625 -0.5625 C 15.300781 0.164062 13.597656 0.53125 11.546875 0.53125 Z M 12.46875 -2.765625 C 14.019531 -2.765625 15.367188 -3.125 16.515625 -3.84375 C 17.660156 -4.5625 18.535156 -5.570312 19.140625 -6.875 C 19.753906 -8.1875 20.0625 -9.695312 20.0625 -11.40625 L 20.0625 -14.953125 L 19.578125 -15.0625 C 18.953125 -14.613281 18.191406 -14.242188 17.296875 -13.953125 C 16.398438 -13.660156 15.144531 -13.394531 13.53125 -13.15625 C 11.90625 -12.9375 10.613281 -12.597656 9.65625 -12.140625 C 8.707031 -11.679688 8.03125 -11.097656 7.625 -10.390625 C 7.21875 -9.691406 7.015625 -8.828125 7.015625 -7.796875 C 7.015625 -6.148438 7.492188 -4.898438 8.453125 -4.046875 C 9.421875 -3.191406 10.757812 -2.765625 12.46875 -2.765625 Z M 12.46875 -2.765625 "/></g></g></g><g fill="#000000" fill-opacity="1"><g transform="translate(1090.729195, 714.964784)"><g><path d="M 14.53125 0.53125 C 12.269531 0.53125 10.28125 -0.00390625 8.5625 -1.078125 C 6.851562 -2.148438 5.507812 -3.769531 4.53125 -5.9375 C 3.5625 -8.101562 3.078125 -10.785156 3.078125 -13.984375 C 3.078125 -17.191406 3.582031 -19.878906 4.59375 -22.046875 C 5.613281 -24.222656 7.015625 -25.847656 8.796875 -26.921875 C 10.585938 -28.003906 12.65625 -28.546875 15 -28.546875 C 16.863281 -28.546875 18.539062 -28.191406 20.03125 -27.484375 C 21.519531 -26.785156 22.800781 -25.628906 23.875 -24.015625 L 24.40625 -24.125 L 24.40625 -39.25 L 28.546875 -39.25 L 28.546875 0 L 24.40625 0 L 24.40625 -4.09375 L 23.875 -4.1875 C 22.957031 -2.800781 21.710938 -1.664062 20.140625 -0.78125 C 18.578125 0.09375 16.707031 0.53125 14.53125 0.53125 Z M 15.8125 -3.171875 C 18.425781 -3.171875 20.507812 -4.0625 22.0625 -5.84375 C 23.625 -7.632812 24.40625 -10.347656 24.40625 -13.984375 C 24.40625 -17.640625 23.625 -20.359375 22.0625 -22.140625 C 20.507812 -23.929688 18.425781 -24.828125 15.8125 -24.828125 C 13.125 -24.828125 11.050781 -23.957031 9.59375 -22.21875 C 8.144531 -20.476562 7.421875 -17.734375 7.421875 -13.984375 C 7.421875 -6.773438 10.21875 -3.171875 15.8125 -3.171875 Z M 15.8125 -3.171875 "/></g></g></g><g fill="#000000" fill-opacity="1"><g transform="translate(1124.166129, 714.964784)"><g><path d="M 6.953125 -33.421875 C 6.078125 -33.421875 5.363281 -33.691406 4.8125 -34.234375 C 4.257812 -34.785156 3.984375 -35.484375 3.984375 -36.328125 C 3.984375 -37.179688 4.257812 -37.878906 4.8125 -38.421875 C 5.363281 -38.972656 6.078125 -39.25 6.953125 -39.25 C 7.835938 -39.25 8.550781 -38.972656 9.09375 -38.421875 C 9.644531 -37.878906 9.921875 -37.179688 9.921875 -36.328125 C 9.921875 -35.484375 9.644531 -34.785156 9.09375 -34.234375 C 8.550781 -33.691406 7.835938 -33.421875 6.953125 -33.421875 Z M 4.875 0 L 4.875 -28 L 9.015625 -28 L 9.015625 0 Z M 4.875 0 "/></g></g></g><g fill="#000000" fill-opacity="1"><g transform="translate(1138.053763, 714.964784)"><g><path d="M 4.875 0 L 4.875 -28 L 8.8125 -28 L 8.8125 -23.609375 L 9.34375 -23.484375 C 10.269531 -25.128906 11.457031 -26.382812 12.90625 -27.25 C 14.351562 -28.113281 16.117188 -28.546875 18.203125 -28.546875 C 21.578125 -28.546875 24.019531 -27.6875 25.53125 -25.96875 C 27.039062 -24.25 27.796875 -21.601562 27.796875 -18.03125 L 27.796875 0 L 23.671875 0 L 23.671875 -17.921875 C 23.671875 -19.617188 23.453125 -20.976562 23.015625 -22 C 22.585938 -23.019531 21.921875 -23.765625 21.015625 -24.234375 C 20.109375 -24.703125 18.914062 -24.9375 17.4375 -24.9375 C 14.914062 -24.9375 12.878906 -24.101562 11.328125 -22.4375 C 9.785156 -20.769531 9.015625 -18.082031 9.015625 -14.375 L 9.015625 0 Z M 4.875 0 "/></g></g></g><g fill="#000000" fill-opacity="1"><g transform="translate(1170.297444, 714.964784)"><g><path d="M 14.421875 11.890625 C 10.003906 11.890625 6.78125 11.148438 4.75 9.671875 C 2.71875 8.203125 1.703125 6.25 1.703125 3.8125 C 1.703125 2.238281 2.175781 0.984375 3.125 0.046875 C 4.070312 -0.878906 5.453125 -1.546875 7.265625 -1.953125 L 7.265625 -2.484375 C 6.398438 -2.972656 5.75 -3.546875 5.3125 -4.203125 C 4.882812 -4.867188 4.671875 -5.660156 4.671875 -6.578125 C 4.671875 -7.660156 5.015625 -8.539062 5.703125 -9.21875 C 6.390625 -9.894531 7.410156 -10.410156 8.765625 -10.765625 L 8.765625 -11.296875 C 5.710938 -12.910156 4.1875 -15.523438 4.1875 -19.140625 C 4.1875 -20.972656 4.597656 -22.597656 5.421875 -24.015625 C 6.253906 -25.441406 7.441406 -26.550781 8.984375 -27.34375 C 10.523438 -28.144531 12.320312 -28.546875 14.375 -28.546875 C 16.726562 -28.546875 18.691406 -28.023438 20.265625 -26.984375 C 20.859375 -27.648438 21.300781 -28.359375 21.59375 -29.109375 C 21.894531 -29.859375 22.085938 -30.707031 22.171875 -31.65625 L 22.703125 -32 L 26.109375 -31.1875 C 25.929688 -29.757812 25.5 -28.554688 24.8125 -27.578125 C 24.132812 -26.597656 23.164062 -25.785156 21.90625 -25.140625 L 21.90625 -24.609375 C 22.8125 -23.890625 23.476562 -23.050781 23.90625 -22.09375 C 24.332031 -21.144531 24.546875 -20.035156 24.546875 -18.765625 C 24.546875 -17.003906 24.125 -15.421875 23.28125 -14.015625 C 22.4375 -12.609375 21.242188 -11.503906 19.703125 -10.703125 C 18.160156 -9.898438 16.382812 -9.5 14.375 -9.5 C 14.132812 -9.5 13.710938 -9.515625 13.109375 -9.546875 C 12.429688 -9.578125 11.929688 -9.59375 11.609375 -9.59375 C 10.722656 -9.59375 10.015625 -9.363281 9.484375 -8.90625 C 8.960938 -8.457031 8.703125 -7.875 8.703125 -7.15625 C 8.703125 -6.28125 8.984375 -5.632812 9.546875 -5.21875 C 10.117188 -4.800781 11.054688 -4.566406 12.359375 -4.515625 L 19 -4.296875 C 21.851562 -4.191406 23.96875 -3.523438 25.34375 -2.296875 C 26.726562 -1.066406 27.421875 0.671875 27.421875 2.921875 C 27.421875 4.597656 26.972656 6.109375 26.078125 7.453125 C 25.179688 8.796875 23.757812 9.867188 21.8125 10.671875 C 19.863281 11.484375 17.398438 11.890625 14.421875 11.890625 Z M 14.375 -13.046875 C 16.351562 -13.046875 17.882812 -13.5625 18.96875 -14.59375 C 20.050781 -15.632812 20.59375 -17.082031 20.59375 -18.9375 C 20.59375 -20.875 20.054688 -22.363281 18.984375 -23.40625 C 17.910156 -24.457031 16.375 -24.984375 14.375 -24.984375 C 12.375 -24.984375 10.847656 -24.460938 9.796875 -23.421875 C 8.753906 -22.378906 8.234375 -20.882812 8.234375 -18.9375 C 8.234375 -17.0625 8.753906 -15.609375 9.796875 -14.578125 C 10.847656 -13.554688 12.375 -13.046875 14.375 -13.046875 Z M 14.421875 8.328125 C 16.484375 8.328125 18.171875 8.097656 19.484375 7.640625 C 20.796875 7.179688 21.738281 6.578125 22.3125 5.828125 C 22.894531 5.078125 23.1875 4.234375 23.1875 3.296875 C 23.1875 2.472656 23.03125 1.804688 22.71875 1.296875 C 22.40625 0.785156 21.898438 0.398438 21.203125 0.140625 C 20.503906 -0.109375 19.554688 -0.265625 18.359375 -0.328125 L 12.09375 -0.640625 L 11.203125 -0.640625 C 7.691406 -0.585938 5.9375 0.773438 5.9375 3.453125 C 5.9375 6.703125 8.765625 8.328125 14.421875 8.328125 Z M 14.421875 8.328125 "/></g></g></g></svg>